#N canvas 560 30 317 104 10;
#N canvas 46 29 450 378 metronome 1;
#X obj 20 282 dac~;
#X obj 20 219 noise~;
#X obj 19 251 *~;
#X obj 95 145 vline~;
#X obj 307 108 tgl 15 0 empty empty empty 17 7 0 10 -262144 -1 -1 1
1;
#X obj 95 235 *~;
#X obj 313 22 loadbang;
#X obj 127 65 expr (60 / $f1) * 1000;
#X floatatom 334 135 5 0 0 0 - - -, f 5;
#X obj 95 89 metro;
#X msg 313 69 60;
#X obj 313 46 t b b;
#X msg 95 119 0 \, 1 1 \, 0 2 1;
#X obj 378 105 vsl 15 50 0 1 0 0 empty empty empty 0 -9 0 10 -262144
-1 -1 980 1;
#X msg 345 69 0.2;
#X text 305 134 bpm;
#X text 349 103 vol;
#X connect 1 0 2 0;
#X connect 2 0 0 0;
#X connect 2 0 0 1;
#X connect 3 0 5 0;
#X connect 4 0 9 0;
#X connect 5 0 2 1;
#X connect 6 0 11 0;
#X connect 7 0 9 1;
#X connect 8 0 7 0;
#X connect 9 0 12 0;
#X connect 10 0 8 0;
#X connect 11 0 10 0;
#X connect 11 1 14 0;
#X connect 12 0 3 0;
#X connect 13 0 5 1;
#X connect 14 0 13 0;
#X coords 0 -1 1 1 100 60 2 300 100;
#X restore 15 22 pd metronome;
#X coords 0 104 1 103 85 60 0;
